<svg xmlns="http://www.w3.org/2000/svg" version="1.1" xmlns:xlink="http://www.w3.org/1999/xlink" xmlns:svgjs="http://svgjs.dev/svgjs" width="40" height="40"><svg xmlns="http://www.w3.org/2000/svg" xmlns:xlink="http://www.w3.org/1999/xlink" width="40" zoomAndPan="magnify" viewBox="0 0 30 30.000001" height="40" preserveAspectRatio="xMidYMid meet" version="1.0"><defs><g></g><clipPath id="SvgjsClipPath1001"><path d="M 8 16 L 20.335938 16 L 20.335938 21 L 8 21 Z M 8 16 " clip-rule="nonzero"></path></clipPath></defs><path fill="#3f5965" d="M 14.753906 21.578125 C 14.957031 21.515625 15.15625 21.445312 15.347656 21.371094 C 12.019531 22.027344 8.679688 20.054688 7.695312 16.742188 C 6.707031 13.425781 8.433594 9.949219 11.582031 8.683594 C 11.375 8.726562 11.171875 8.773438 10.96875 8.835938 C 7.453125 9.878906 5.445312 13.578125 6.492188 17.097656 C 7.535156 20.617188 11.234375 22.621094 14.753906 21.578125 " fill-opacity="1" fill-rule="nonzero"></path><path fill="#289db9" d="M 6.519531 19.890625 C 6.695312 20.027344 6.878906 20.15625 7.0625 20.273438 C 4.453125 17.804688 4.105469 13.707031 6.371094 10.820312 C 8.632812 7.9375 12.691406 7.292969 15.714844 9.238281 C 15.554688 9.085938 15.390625 8.941406 15.210938 8.804688 C 12.152344 6.402344 7.722656 6.9375 5.324219 10 C 2.921875 13.0625 3.457031 17.488281 6.519531 19.890625 " fill-opacity="1" fill-rule="nonzero"></path><g clip-path="url(#c19eb93f9e)"><path fill="#289db9" d="M 13.070312 19.566406 C 11.253906 19.078125 9.761719 17.992188 8.746094 16.574219 C 9.546875 18.339844 11.101562 19.75 13.121094 20.292969 C 15.761719 21.003906 18.457031 20.039062 20.078125 18.046875 C 18.191406 19.601562 15.609375 20.25 13.070312 19.566406 " fill-opacity="1" fill-rule="nonzero"></path></g><g fill="#3f5965" fill-opacity="1"><g transform="translate(9.200246, 15.940866)"><g><path d="M 1.625 -0.765625 C 1.65625 -0.921875 1.582031 -1.039062 1.40625 -1.125 L 1.015625 -1.28125 C 0.566406 -1.476562 0.359375 -1.753906 0.390625 -2.109375 C 0.390625 -2.265625 0.4375 -2.40625 0.53125 -2.53125 C 0.632812 -2.65625 0.769531 -2.753906 0.9375 -2.828125 C 1.113281 -2.898438 1.304688 -2.929688 1.515625 -2.921875 C 1.796875 -2.921875 2.019531 -2.835938 2.1875 -2.671875 C 2.363281 -2.515625 2.445312 -2.300781 2.4375 -2.03125 L 1.859375 -2.03125 C 1.867188 -2.164062 1.84375 -2.269531 1.78125 -2.34375 C 1.71875 -2.414062 1.617188 -2.453125 1.484375 -2.453125 C 1.347656 -2.453125 1.226562 -2.421875 1.125 -2.359375 C 1.03125 -2.296875 0.972656 -2.210938 0.953125 -2.109375 C 0.929688 -1.960938 1.03125 -1.847656 1.25 -1.765625 L 1.515625 -1.65625 L 1.65625 -1.59375 C 2.050781 -1.394531 2.234375 -1.125 2.203125 -0.78125 C 2.191406 -0.601562 2.140625 -0.453125 2.046875 -0.328125 C 1.953125 -0.210938 1.820312 -0.117188 1.65625 -0.046875 C 1.488281 0.015625 1.300781 0.046875 1.09375 0.046875 C 0.894531 0.0351562 0.710938 -0.00390625 0.546875 -0.078125 C 0.390625 -0.160156 0.269531 -0.28125 0.1875 -0.4375 C 0.101562 -0.570312 0.0664062 -0.726562 0.078125 -0.90625 L 0.65625 -0.90625 C 0.632812 -0.59375 0.789062 -0.4375 1.125 -0.4375 C 1.257812 -0.4375 1.375 -0.460938 1.46875 -0.515625 C 1.5625 -0.578125 1.613281 -0.660156 1.625 -0.765625 Z M 1.625 -0.765625 "></path></g></g></g><g fill="#3f5965" fill-opacity="1"><g transform="translate(11.453716, 15.940866)"><g><path d="M 1.328125 -0.21875 C 1.171875 -0.0390625 0.976562 0.046875 0.75 0.046875 C 0.539062 0.0351562 0.378906 -0.0390625 0.265625 -0.1875 C 0.160156 -0.332031 0.125 -0.519531 0.15625 -0.75 L 0.390625 -2.140625 L 0.9375 -2.140625 L 0.703125 -0.75 C 0.703125 -0.707031 0.703125 -0.664062 0.703125 -0.625 C 0.710938 -0.5 0.785156 -0.429688 0.921875 -0.421875 C 1.097656 -0.421875 1.242188 -0.488281 1.359375 -0.625 L 1.625 -2.140625 L 2.1875 -2.140625 L 1.8125 0 L 1.296875 0 Z M 1.328125 -0.21875 "></path></g></g></g><g fill="#3f5965" fill-opacity="1"><g transform="translate(13.490721, 15.940866)"><g><path d="M 0.890625 -2.140625 L 0.84375 -1.890625 C 1.007812 -2.085938 1.21875 -2.1875 1.46875 -2.1875 C 1.664062 -2.1875 1.8125 -2.113281 1.90625 -1.96875 C 2.007812 -1.820312 2.046875 -1.617188 2.015625 -1.359375 L 1.796875 0 L 1.234375 0 L 1.46875 -1.375 C 1.46875 -1.425781 1.46875 -1.472656 1.46875 -1.515625 C 1.445312 -1.648438 1.363281 -1.71875 1.21875 -1.71875 C 1.070312 -1.726562 0.941406 -1.660156 0.828125 -1.515625 L 0.546875 0 L 0 0 L 0.359375 -2.140625 Z M 0.890625 -2.140625 "></path></g></g></g><g fill="#289db9" fill-opacity="1"><g transform="translate(15.389695, 15.861862)"><g><path d="M 2.390625 -0.96875 C 2.367188 -0.769531 2.300781 -0.59375 2.1875 -0.4375 C 2.070312 -0.28125 1.921875 -0.160156 1.734375 -0.078125 C 1.554688 0.00390625 1.363281 0.046875 1.15625 0.046875 C 0.96875 0.0351562 0.800781 -0.0078125 0.65625 -0.09375 C 0.519531 -0.175781 0.410156 -0.296875 0.328125 -0.453125 C 0.242188 -0.617188 0.195312 -0.800781 0.1875 -1 C 0.175781 -1.164062 0.191406 -1.367188 0.234375 -1.609375 C 0.273438 -1.859375 0.347656 -2.078125 0.453125 -2.265625 C 0.566406 -2.453125 0.703125 -2.597656 0.859375 -2.703125 C 1.078125 -2.859375 1.320312 -2.929688 1.59375 -2.921875 C 1.894531 -2.921875 2.128906 -2.828125 2.296875 -2.640625 C 2.472656 -2.460938 2.570312 -2.21875 2.59375 -1.90625 L 2.015625 -1.90625 C 2.015625 -2.09375 1.976562 -2.226562 1.90625 -2.3125 C 1.832031 -2.394531 1.71875 -2.4375 1.5625 -2.4375 C 1.363281 -2.445312 1.203125 -2.375 1.078125 -2.21875 C 0.953125 -2.070312 0.867188 -1.859375 0.828125 -1.578125 C 0.773438 -1.304688 0.753906 -1.097656 0.765625 -0.953125 C 0.773438 -0.785156 0.8125 -0.660156 0.875 -0.578125 C 0.945312 -0.492188 1.050781 -0.445312 1.1875 -0.4375 C 1.363281 -0.4375 1.503906 -0.476562 1.609375 -0.5625 C 1.710938 -0.65625 1.78125 -0.785156 1.8125 -0.953125 Z M 2.390625 -0.96875 "></path></g></g></g><g fill="#289db9" fill-opacity="1"><g transform="translate(17.800091, 15.861862)"><g><path d="M 1.234375 -2.1875 C 1.421875 -2.1875 1.582031 -2.132812 1.71875 -2.03125 C 1.851562 -1.9375 1.953125 -1.804688 2.015625 -1.640625 C 2.085938 -1.484375 2.113281 -1.300781 2.09375 -1.09375 C 2.0625 -0.75 1.941406 -0.472656 1.734375 -0.265625 C 1.523438 -0.0546875 1.269531 0.046875 0.96875 0.046875 C 0.78125 0.0351562 0.617188 -0.015625 0.484375 -0.109375 C 0.347656 -0.203125 0.25 -0.328125 0.1875 -0.484375 C 0.125 -0.648438 0.0976562 -0.835938 0.109375 -1.046875 C 0.148438 -1.398438 0.269531 -1.679688 0.46875 -1.890625 C 0.675781 -2.097656 0.929688 -2.195312 1.234375 -2.1875 Z M 0.671875 -0.828125 C 0.671875 -0.703125 0.695312 -0.601562 0.75 -0.53125 C 0.8125 -0.457031 0.894531 -0.421875 1 -0.421875 C 1.164062 -0.410156 1.296875 -0.488281 1.390625 -0.65625 C 1.492188 -0.820312 1.546875 -1.035156 1.546875 -1.296875 C 1.535156 -1.421875 1.5 -1.519531 1.4375 -1.59375 C 1.382812 -1.675781 1.304688 -1.71875 1.203125 -1.71875 C 1.035156 -1.726562 0.898438 -1.648438 0.796875 -1.484375 C 0.703125 -1.328125 0.660156 -1.109375 0.671875 -0.828125 Z M 0.671875 -0.828125 "></path></g></g></g><g fill="#289db9" fill-opacity="1"><g transform="translate(19.858973, 15.861862)"><g><path d="M 1.25 0 C 1.226562 -0.0507812 1.21875 -0.113281 1.21875 -0.1875 C 1.0625 -0.03125 0.878906 0.046875 0.671875 0.046875 C 0.484375 0.0351562 0.328125 -0.0234375 0.203125 -0.140625 C 0.0859375 -0.265625 0.03125 -0.414062 0.03125 -0.59375 C 0.0390625 -0.820312 0.140625 -1 0.328125 -1.125 C 0.515625 -1.25 0.765625 -1.3125 1.078125 -1.3125 L 1.34375 -1.3125 L 1.375 -1.4375 C 1.382812 -1.476562 1.382812 -1.519531 1.375 -1.5625 C 1.375 -1.625 1.351562 -1.671875 1.3125 -1.703125 C 1.269531 -1.742188 1.21875 -1.765625 1.15625 -1.765625 C 1.0625 -1.765625 0.984375 -1.738281 0.921875 -1.6875 C 0.867188 -1.644531 0.832031 -1.582031 0.8125 -1.5 L 0.25 -1.5 C 0.257812 -1.707031 0.351562 -1.875 0.53125 -2 C 0.707031 -2.125 0.929688 -2.1875 1.203125 -2.1875 C 1.441406 -2.175781 1.628906 -2.101562 1.765625 -1.96875 C 1.898438 -1.832031 1.957031 -1.65625 1.9375 -1.4375 L 1.78125 -0.40625 L 1.765625 -0.28125 C 1.765625 -0.1875 1.773438 -0.101562 1.796875 -0.03125 L 1.796875 0 Z M 0.8125 -0.390625 C 0.976562 -0.390625 1.117188 -0.460938 1.234375 -0.609375 L 1.3125 -0.96875 L 1.109375 -0.984375 C 0.910156 -0.972656 0.765625 -0.910156 0.671875 -0.796875 C 0.640625 -0.742188 0.617188 -0.6875 0.609375 -0.625 C 0.597656 -0.550781 0.613281 -0.492188 0.65625 -0.453125 C 0.695312 -0.410156 0.75 -0.390625 0.8125 -0.390625 Z M 0.8125 -0.390625 "></path></g></g></g><g fill="#289db9" fill-opacity="1"><g transform="translate(21.802669, 15.861862)"><g><path d="M 1.25 -0.609375 C 1.269531 -0.710938 1.195312 -0.785156 1.03125 -0.828125 L 0.84375 -0.875 C 0.414062 -1 0.207031 -1.207031 0.21875 -1.5 C 0.226562 -1.707031 0.316406 -1.875 0.484375 -2 C 0.660156 -2.125 0.875 -2.1875 1.125 -2.1875 C 1.363281 -2.1875 1.554688 -2.125 1.703125 -2 C 1.859375 -1.875 1.9375 -1.703125 1.9375 -1.484375 L 1.375 -1.5 C 1.375 -1.675781 1.285156 -1.765625 1.109375 -1.765625 C 1.015625 -1.765625 0.9375 -1.742188 0.875 -1.703125 C 0.8125 -1.660156 0.773438 -1.601562 0.765625 -1.53125 C 0.742188 -1.425781 0.820312 -1.351562 1 -1.3125 L 1.078125 -1.296875 C 1.265625 -1.242188 1.40625 -1.191406 1.5 -1.140625 C 1.59375 -1.085938 1.664062 -1.019531 1.71875 -0.9375 C 1.769531 -0.851562 1.796875 -0.75 1.796875 -0.625 C 1.785156 -0.488281 1.738281 -0.367188 1.65625 -0.265625 C 1.570312 -0.171875 1.457031 -0.09375 1.3125 -0.03125 C 1.164062 0.0195312 1.015625 0.046875 0.859375 0.046875 C 0.617188 0.0351562 0.414062 -0.03125 0.25 -0.15625 C 0.09375 -0.289062 0.015625 -0.46875 0.015625 -0.6875 L 0.546875 -0.6875 C 0.546875 -0.476562 0.65625 -0.375 0.875 -0.375 C 0.976562 -0.375 1.0625 -0.394531 1.125 -0.4375 C 1.195312 -0.476562 1.238281 -0.535156 1.25 -0.609375 Z M 1.25 -0.609375 "></path></g></g></g><g fill="#289db9" fill-opacity="1"><g transform="translate(23.658984, 15.861862)"><g><path d="M 1.140625 -2.671875 L 1.046875 -2.140625 L 1.40625 -2.140625 L 1.328125 -1.71875 L 0.96875 -1.71875 L 0.796875 -0.65625 C 0.785156 -0.582031 0.785156 -0.523438 0.796875 -0.484375 C 0.816406 -0.453125 0.863281 -0.4375 0.9375 -0.4375 C 0.957031 -0.4375 1.015625 -0.441406 1.109375 -0.453125 L 1.078125 -0.015625 C 0.972656 0.0234375 0.863281 0.0390625 0.75 0.03125 C 0.5625 0.03125 0.421875 -0.0234375 0.328125 -0.140625 C 0.242188 -0.253906 0.210938 -0.40625 0.234375 -0.59375 L 0.421875 -1.71875 L 0.109375 -1.71875 L 0.1875 -2.140625 L 0.484375 -2.140625 L 0.578125 -2.671875 Z M 1.140625 -2.671875 "></path></g></g></g><g fill="#289db9" fill-opacity="1"><g transform="translate(10.943512, 17.376312)"><g><path d="M 0.40625 0.015625 C 0.351562 0.015625 0.300781 0.0078125 0.25 0 C 0.207031 -0.0195312 0.164062 -0.046875 0.125 -0.078125 C 0.09375 -0.109375 0.0664062 -0.148438 0.046875 -0.203125 L 0.171875 -0.234375 C 0.191406 -0.191406 0.222656 -0.15625 0.265625 -0.125 C 0.316406 -0.101562 0.363281 -0.09375 0.40625 -0.09375 C 0.445312 -0.09375 0.484375 -0.0976562 0.515625 -0.109375 C 0.546875 -0.117188 0.570312 -0.132812 0.59375 -0.15625 C 0.613281 -0.1875 0.625 -0.222656 0.625 -0.265625 C 0.625 -0.296875 0.613281 -0.320312 0.59375 -0.34375 C 0.582031 -0.363281 0.5625 -0.378906 0.53125 -0.390625 C 0.5 -0.398438 0.460938 -0.410156 0.421875 -0.421875 C 0.390625 -0.429688 0.351562 -0.441406 0.3125 -0.453125 C 0.28125 -0.472656 0.25 -0.488281 0.21875 -0.5 C 0.1875 -0.519531 0.160156 -0.546875 0.140625 -0.578125 C 0.128906 -0.609375 0.125 -0.648438 0.125 -0.703125 C 0.125 -0.753906 0.140625 -0.800781 0.171875 -0.84375 C 0.203125 -0.882812 0.242188 -0.910156 0.296875 -0.921875 C 0.347656 -0.941406 0.398438 -0.953125 0.453125 -0.953125 C 0.503906 -0.953125 0.550781 -0.945312 0.59375 -0.9375 C 0.632812 -0.925781 0.671875 -0.90625 0.703125 -0.875 C 0.742188 -0.851562 0.769531 -0.820312 0.78125 -0.78125 L 0.65625 -0.75 C 0.644531 -0.78125 0.617188 -0.800781 0.578125 -0.8125 C 0.535156 -0.832031 0.492188 -0.84375 0.453125 -0.84375 C 0.421875 -0.84375 0.390625 -0.835938 0.359375 -0.828125 C 0.328125 -0.816406 0.300781 -0.800781 0.28125 -0.78125 C 0.257812 -0.757812 0.25 -0.734375 0.25 -0.703125 C 0.25 -0.671875 0.257812 -0.644531 0.28125 -0.625 C 0.300781 -0.601562 0.328125 -0.585938 0.359375 -0.578125 C 0.390625 -0.566406 0.421875 -0.554688 0.453125 -0.546875 C 0.492188 -0.535156 0.53125 -0.519531 0.5625 -0.5 C 0.601562 -0.488281 0.632812 -0.472656 0.65625 -0.453125 C 0.6875 -0.441406 0.710938 -0.421875 0.734375 -0.390625 C 0.753906 -0.359375 0.765625 -0.320312 0.765625 -0.28125 C 0.765625 -0.226562 0.753906 -0.179688 0.734375 -0.140625 C 0.710938 -0.109375 0.679688 -0.078125 0.640625 -0.046875 C 0.609375 -0.0234375 0.570312 -0.0078125 0.53125 0 C 0.488281 0.0078125 0.445312 0.015625 0.40625 0.015625 Z M 0.40625 0.015625 "></path></g></g></g><g fill="#289db9" fill-opacity="1"><g transform="translate(11.798816, 17.376312)"><g><path d="M -0.09375 0.21875 L -0.0625 0.125 L -0.015625 0.125 C 0.0234375 0.125 0.0507812 0.117188 0.0625 0.109375 C 0.0820312 0.109375 0.0976562 0.0976562 0.109375 0.078125 C 0.128906 0.0546875 0.144531 0.03125 0.15625 0 L 0.0625 -0.703125 L 0.1875 -0.703125 L 0.234375 -0.15625 L 0.53125 -0.703125 L 0.671875 -0.703125 L 0.265625 0.03125 C 0.242188 0.0703125 0.222656 0.101562 0.203125 0.125 C 0.191406 0.15625 0.175781 0.175781 0.15625 0.1875 C 0.132812 0.207031 0.109375 0.21875 0.078125 0.21875 C 0.0546875 0.21875 0.0195312 0.21875 -0.03125 0.21875 Z M -0.09375 0.21875 "></path></g></g></g><g fill="#289db9" fill-opacity="1"><g transform="translate(12.409747, 17.376312)"><g><path d="M 0.296875 0.015625 C 0.222656 0.015625 0.160156 0.00390625 0.109375 -0.015625 C 0.0664062 -0.046875 0.0351562 -0.09375 0.015625 -0.15625 L 0.140625 -0.203125 C 0.140625 -0.160156 0.15625 -0.128906 0.1875 -0.109375 C 0.226562 -0.0859375 0.265625 -0.078125 0.296875 -0.078125 C 0.335938 -0.078125 0.375 -0.0859375 0.40625 -0.109375 C 0.4375 -0.128906 0.453125 -0.15625 0.453125 -0.1875 C 0.453125 -0.21875 0.441406 -0.238281 0.421875 -0.25 C 0.410156 -0.269531 0.390625 -0.28125 0.359375 -0.28125 C 0.328125 -0.289062 0.296875 -0.300781 0.265625 -0.3125 C 0.234375 -0.320312 0.203125 -0.332031 0.171875 -0.34375 C 0.140625 -0.363281 0.113281 -0.382812 0.09375 -0.40625 C 0.0703125 -0.4375 0.0625 -0.472656 0.0625 -0.515625 C 0.0625 -0.554688 0.0703125 -0.59375 0.09375 -0.625 C 0.125 -0.65625 0.160156 -0.675781 0.203125 -0.6875 C 0.242188 -0.695312 0.289062 -0.703125 0.34375 -0.703125 C 0.375 -0.703125 0.40625 -0.695312 0.4375 -0.6875 C 0.476562 -0.675781 0.515625 -0.660156 0.546875 -0.640625 C 0.578125 -0.617188 0.597656 -0.59375 0.609375 -0.5625 L 0.5 -0.53125 C 0.488281 -0.550781 0.460938 -0.566406 0.421875 -0.578125 C 0.390625 -0.597656 0.359375 -0.609375 0.328125 -0.609375 C 0.296875 -0.609375 0.265625 -0.597656 0.234375 -0.578125 C 0.203125 -0.566406 0.1875 -0.546875 0.1875 -0.515625 C 0.1875 -0.492188 0.195312 -0.472656 0.21875 -0.453125 C 0.238281 -0.441406 0.257812 -0.429688 0.28125 -0.421875 C 0.3125 -0.410156 0.34375 -0.398438 0.375 -0.390625 C 0.414062 -0.390625 0.453125 -0.378906 0.484375 -0.359375 C 0.515625 -0.347656 0.535156 -0.328125 0.546875 -0.296875 C 0.566406 -0.273438 0.578125 -0.242188 0.578125 -0.203125 C 0.578125 -0.148438 0.5625 -0.109375 0.53125 -0.078125 C 0.507812 -0.046875 0.476562 -0.0195312 0.4375 0 C 0.394531 0.0078125 0.347656 0.015625 0.296875 0.015625 Z M 0.296875 0.015625 "></path></g></g></g><g fill="#289db9" fill-opacity="1"><g transform="translate(13.082473, 17.376312)"><g><path d="M 0.21875 0 C 0.164062 0 0.128906 -0.00390625 0.109375 -0.015625 C 0.0859375 -0.0351562 0.078125 -0.0625 0.078125 -0.09375 C 0.078125 -0.113281 0.0820312 -0.144531 0.09375 -0.1875 L 0.1875 -0.609375 L 0.0625 -0.609375 L 0.09375 -0.703125 L 0.203125 -0.703125 L 0.25 -0.875 L 0.359375 -0.875 L 0.328125 -0.703125 L 0.453125 -0.703125 L 0.4375 -0.609375 L 0.3125 -0.609375 L 0.21875 -0.21875 C 0.21875 -0.207031 0.21875 -0.191406 0.21875 -0.171875 C 0.21875 -0.160156 0.21875 -0.148438 0.21875 -0.140625 C 0.21875 -0.128906 0.21875 -0.117188 0.21875 -0.109375 C 0.226562 -0.109375 0.242188 -0.109375 0.265625 -0.109375 L 0.328125 -0.109375 L 0.3125 0 Z M 0.21875 0 "></path></g></g></g><g fill="#289db9" fill-opacity="1"><g transform="translate(13.537512, 17.376312)"><g><path d="M 0.328125 0.015625 C 0.242188 0.015625 0.171875 -0.0078125 0.109375 -0.0625 C 0.0546875 -0.113281 0.03125 -0.1875 0.03125 -0.28125 C 0.03125 -0.363281 0.046875 -0.4375 0.078125 -0.5 C 0.117188 -0.5625 0.164062 -0.609375 0.21875 -0.640625 C 0.28125 -0.679688 0.351562 -0.703125 0.4375 -0.703125 C 0.5 -0.703125 0.550781 -0.6875 0.59375 -0.65625 C 0.632812 -0.632812 0.664062 -0.601562 0.6875 -0.5625 C 0.707031 -0.519531 0.71875 -0.472656 0.71875 -0.421875 C 0.71875 -0.390625 0.710938 -0.351562 0.703125 -0.3125 L 0.15625 -0.3125 C 0.15625 -0.3125 0.15625 -0.304688 0.15625 -0.296875 C 0.15625 -0.285156 0.15625 -0.28125 0.15625 -0.28125 C 0.15625 -0.226562 0.164062 -0.1875 0.1875 -0.15625 C 0.207031 -0.132812 0.226562 -0.117188 0.25 -0.109375 C 0.28125 -0.0976562 0.3125 -0.09375 0.34375 -0.09375 C 0.382812 -0.09375 0.414062 -0.0976562 0.4375 -0.109375 C 0.46875 -0.117188 0.492188 -0.132812 0.515625 -0.15625 L 0.625 -0.125 C 0.59375 -0.0820312 0.550781 -0.046875 0.5 -0.015625 C 0.457031 0.00390625 0.398438 0.015625 0.328125 0.015625 Z M 0.1875 -0.40625 L 0.59375 -0.40625 C 0.59375 -0.414062 0.59375 -0.421875 0.59375 -0.421875 C 0.59375 -0.429688 0.59375 -0.4375 0.59375 -0.4375 C 0.59375 -0.46875 0.585938 -0.492188 0.578125 -0.515625 C 0.566406 -0.546875 0.546875 -0.566406 0.515625 -0.578125 C 0.492188 -0.597656 0.460938 -0.609375 0.421875 -0.609375 C 0.378906 -0.609375 0.34375 -0.597656 0.3125 -0.578125 C 0.28125 -0.566406 0.25 -0.546875 0.21875 -0.515625 C 0.195312 -0.484375 0.1875 -0.445312 0.1875 -0.40625 Z M 0.1875 -0.40625 "></path></g></g></g><g fill="#289db9" fill-opacity="1"><g transform="translate(14.298718, 17.376312)"><g><path d="M 0.015625 0 L 0.15625 -0.703125 L 0.25 -0.703125 L 0.25 -0.59375 C 0.28125 -0.632812 0.3125 -0.660156 0.34375 -0.671875 C 0.382812 -0.691406 0.429688 -0.703125 0.484375 -0.703125 C 0.535156 -0.703125 0.570312 -0.691406 0.59375 -0.671875 C 0.625 -0.648438 0.648438 -0.617188 0.671875 -0.578125 C 0.703125 -0.628906 0.738281 -0.660156 0.78125 -0.671875 C 0.820312 -0.691406 0.867188 -0.703125 0.921875 -0.703125 C 0.929688 -0.703125 0.945312 -0.703125 0.96875 -0.703125 C 0.988281 -0.703125 1.007812 -0.695312 1.03125 -0.6875 C 1.050781 -0.675781 1.066406 -0.65625 1.078125 -0.625 C 1.097656 -0.601562 1.109375 -0.566406 1.109375 -0.515625 C 1.109375 -0.492188 1.101562 -0.460938 1.09375 -0.421875 L 1 0 L 0.890625 0 L 0.96875 -0.40625 C 0.976562 -0.445312 0.984375 -0.476562 0.984375 -0.5 C 0.984375 -0.53125 0.972656 -0.554688 0.953125 -0.578125 C 0.941406 -0.597656 0.914062 -0.609375 0.875 -0.609375 C 0.820312 -0.609375 0.773438 -0.585938 0.734375 -0.546875 C 0.691406 -0.503906 0.664062 -0.445312 0.65625 -0.375 L 0.5625 0 L 0.453125 0 L 0.53125 -0.40625 C 0.539062 -0.445312 0.546875 -0.476562 0.546875 -0.5 C 0.546875 -0.53125 0.535156 -0.554688 0.515625 -0.578125 C 0.503906 -0.597656 0.476562 -0.609375 0.4375 -0.609375 C 0.382812 -0.609375 0.335938 -0.585938 0.296875 -0.546875 C 0.253906 -0.515625 0.226562 -0.457031 0.21875 -0.375 L 0.125 0 Z M 0.015625 0 "></path></g></g></g><g fill="#289db9" fill-opacity="1"><g transform="translate(15.486874, 17.376312)"><g><path d="M 0.296875 0.015625 C 0.222656 0.015625 0.160156 0.00390625 0.109375 -0.015625 C 0.0664062 -0.046875 0.0351562 -0.09375 0.015625 -0.15625 L 0.140625 -0.203125 C 0.140625 -0.160156 0.15625 -0.128906 0.1875 -0.109375 C 0.226562 -0.0859375 0.265625 -0.078125 0.296875 -0.078125 C 0.335938 -0.078125 0.375 -0.0859375 0.40625 -0.109375 C 0.4375 -0.128906 0.453125 -0.15625 0.453125 -0.1875 C 0.453125 -0.21875 0.441406 -0.238281 0.421875 -0.25 C 0.410156 -0.269531 0.390625 -0.28125 0.359375 -0.28125 C 0.328125 -0.289062 0.296875 -0.300781 0.265625 -0.3125 C 0.234375 -0.320312 0.203125 -0.332031 0.171875 -0.34375 C 0.140625 -0.363281 0.113281 -0.382812 0.09375 -0.40625 C 0.0703125 -0.4375 0.0625 -0.472656 0.0625 -0.515625 C 0.0625 -0.554688 0.0703125 -0.59375 0.09375 -0.625 C 0.125 -0.65625 0.160156 -0.675781 0.203125 -0.6875 C 0.242188 -0.695312 0.289062 -0.703125 0.34375 -0.703125 C 0.375 -0.703125 0.40625 -0.695312 0.4375 -0.6875 C 0.476562 -0.675781 0.515625 -0.660156 0.546875 -0.640625 C 0.578125 -0.617188 0.597656 -0.59375 0.609375 -0.5625 L 0.5 -0.53125 C 0.488281 -0.550781 0.460938 -0.566406 0.421875 -0.578125 C 0.390625 -0.597656 0.359375 -0.609375 0.328125 -0.609375 C 0.296875 -0.609375 0.265625 -0.597656 0.234375 -0.578125 C 0.203125 -0.566406 0.1875 -0.546875 0.1875 -0.515625 C 0.1875 -0.492188 0.195312 -0.472656 0.21875 -0.453125 C 0.238281 -0.441406 0.257812 -0.429688 0.28125 -0.421875 C 0.3125 -0.410156 0.34375 -0.398438 0.375 -0.390625 C 0.414062 -0.390625 0.453125 -0.378906 0.484375 -0.359375 C 0.515625 -0.347656 0.535156 -0.328125 0.546875 -0.296875 C 0.566406 -0.273438 0.578125 -0.242188 0.578125 -0.203125 C 0.578125 -0.148438 0.5625 -0.109375 0.53125 -0.078125 C 0.507812 -0.046875 0.476562 -0.0195312 0.4375 0 C 0.394531 0.0078125 0.347656 0.015625 0.296875 0.015625 Z M 0.296875 0.015625 "></path></g></g></g></svg><style>@media (prefers-color-scheme: light) { :root { filter: none; } }
@media (prefers-color-scheme: dark) { :root { filter: none; } }
</style></svg>